<svg width="172" height="38" viewBox="0 0 172 38" fill="none" xmlns="http://www.w3.org/2000/svg">
<g clip-path="url(#clip0_3249_290)">
<mask id="mask0_3249_290" style="mask-type:luminance" maskUnits="userSpaceOnUse" x="2" y="2" width="34" height="34">
<path d="M36 2H2V36H36V2Z" fill="white"/>
</mask>
<g mask="url(#mask0_3249_290)">
<path fill-rule="evenodd" clip-rule="evenodd" d="M19 7.71963C17.7715 7.71963 16.7757 8.71548 16.7757 9.94393H11.0561C11.0561 5.55662 14.6127 2 19 2C23.3874 2 26.9439 5.55662 26.9439 9.94393C26.9439 14.3312 23.3874 17.8878 19 17.8878V12.1682C20.2284 12.1682 21.2243 11.1724 21.2243 9.94393C21.2243 8.71548 20.2284 7.71963 19 7.71963ZM30.2803 19C30.2803 17.7715 29.2845 16.7757 28.0561 16.7757V11.0561C32.4434 11.0561 36 14.6127 36 19C36 23.3874 32.4434 26.9439 28.0561 26.9439C23.6687 26.9439 20.1121 23.3874 20.1121 19H25.8318C25.8318 20.2284 26.8277 21.2243 28.0561 21.2243C29.2845 21.2243 30.2803 20.2284 30.2803 19ZM9.94393 21.2243C8.71548 21.2243 7.71963 20.2284 7.71963 19C7.71963 17.7715 8.71548 16.7757 9.94393 16.7757C11.1724 16.7757 12.1682 17.7715 12.1682 19H17.8878C17.8878 14.6127 14.3312 11.0561 9.94393 11.0561C5.55662 11.0561 2 14.6127 2 19C2 23.3874 5.55662 26.9439 9.94393 26.9439V21.2243ZM19 30.2803C20.2284 30.2803 21.2243 29.2845 21.2243 28.0561H26.9439C26.9439 32.4434 23.3874 36 19 36C14.6127 36 11.0561 32.4434 11.0561 28.0561C11.0561 23.6687 14.6127 20.1121 19 20.1121V25.8318C17.7715 25.8318 16.7757 26.8277 16.7757 28.0561C16.7757 29.2845 17.7715 30.2803 19 30.2803Z" fill="#C58DE7"/>
</g>
</g>
<path d="M50.776 27.5V9.98H58.096L63.928 23.948H64.768L64.288 24.38V9.98H68.464V27.5H61.096L55.264 13.532H54.424L54.904 13.1V27.5H50.776ZM78.5384 27.98C76.8584 27.98 75.4344 27.668 74.2664 27.044C73.1144 26.42 72.2344 25.54 71.6264 24.404C71.0184 23.252 70.7144 21.892 70.7144 20.324V9.98H75.1784V20.42C75.1784 21.108 75.3064 21.708 75.5624 22.22C75.8344 22.732 76.2184 23.124 76.7144 23.396C77.2104 23.668 77.8184 23.804 78.5384 23.804C79.2584 23.804 79.8664 23.668 80.3624 23.396C80.8584 23.124 81.2344 22.74 81.4904 22.244C81.7464 21.732 81.8744 21.124 81.8744 20.42V9.98H86.3384V20.324C86.3384 21.892 86.0344 23.252 85.4264 24.404C84.8344 25.54 83.9544 26.42 82.7864 27.044C81.6344 27.668 80.2184 27.98 78.5384 27.98ZM88.606 27.5V9.98H94.798L98.398 19.22H98.878L102.454 9.98H108.766V27.5H104.35V12.548L105.046 12.596L100.534 23.972H96.478L91.942 12.596L92.686 12.548V27.5H88.606ZM115.205 27.644V24.236H119.069C119.725 24.236 120.213 24.068 120.533 23.732C120.853 23.396 121.013 22.908 121.013 22.268C121.013 21.628 120.853 21.148 120.533 20.828C120.213 20.492 119.725 20.324 119.069 20.324H115.205V17.684H118.925C120.157 17.684 121.261 17.836 122.237 18.14C123.213 18.428 123.981 18.908 124.541 19.58C125.101 20.252 125.381 21.148 125.381 22.268V22.604C125.381 23.66 125.133 24.564 124.637 25.316C124.141 26.068 123.413 26.644 122.453 27.044C121.493 27.444 120.317 27.644 118.925 27.644H115.205ZM111.365 27.644V9.836H115.685V27.644H111.365ZM115.205 19.652V17.012H118.421C119.077 17.012 119.549 16.852 119.837 16.532C120.141 16.196 120.293 15.732 120.293 15.14C120.293 14.532 120.141 14.068 119.837 13.748C119.549 13.412 119.077 13.244 118.421 13.244H115.205V9.836H118.229C120.277 9.836 121.861 10.268 122.981 11.132C124.101 11.98 124.661 13.196 124.661 14.78V15.14C124.661 16.244 124.373 17.132 123.797 17.804C123.237 18.46 122.469 18.932 121.493 19.22C120.533 19.508 119.445 19.652 118.229 19.652H115.205ZM127.116 27.5V9.98H131.436V27.5H127.116ZM130.956 27.5V23.852H138.348V27.5H130.956ZM130.956 20.42V16.772H137.844V20.42H130.956ZM130.956 13.628V9.98H138.204V13.628H130.956ZM140.359 27.5V9.836H144.823V27.5H140.359ZM150.919 27.5L145.999 20.06H150.847L156.055 27.5H150.919ZM143.695 22.124V18.692H147.895C148.423 18.692 148.879 18.588 149.263 18.38C149.647 18.172 149.943 17.876 150.151 17.492C150.375 17.108 150.487 16.66 150.487 16.148C150.487 15.62 150.375 15.164 150.151 14.78C149.943 14.396 149.647 14.1 149.263 13.892C148.879 13.684 148.423 13.58 147.895 13.58H143.695V9.836H147.631C149.151 9.836 150.463 10.068 151.567 10.532C152.671 10.98 153.519 11.652 154.111 12.548C154.703 13.428 154.999 14.524 154.999 15.836V16.22C154.999 17.532 154.695 18.628 154.087 19.508C153.495 20.372 152.647 21.028 151.543 21.476C150.455 21.908 149.151 22.124 147.631 22.124H143.695ZM163.287 27.98C161.655 27.98 160.279 27.724 159.159 27.212C158.055 26.7 157.215 26.004 156.639 25.124C156.079 24.228 155.799 23.204 155.799 22.052H160.119C160.119 22.468 160.231 22.852 160.455 23.204C160.695 23.54 161.047 23.804 161.511 23.996C161.975 24.188 162.567 24.284 163.287 24.284C163.911 24.284 164.439 24.204 164.871 24.044C165.319 23.884 165.655 23.66 165.879 23.372C166.119 23.084 166.239 22.74 166.239 22.34C166.239 21.828 166.023 21.436 165.591 21.164C165.159 20.876 164.431 20.692 163.407 20.612L162.279 20.516C160.471 20.356 159.031 19.788 157.959 18.812C156.887 17.836 156.351 16.54 156.351 14.924C156.351 13.772 156.615 12.788 157.143 11.972C157.687 11.156 158.447 10.532 159.423 10.1C160.399 9.668 161.551 9.452 162.879 9.452C164.319 9.452 165.535 9.692 166.527 10.172C167.535 10.652 168.303 11.332 168.831 12.212C169.359 13.076 169.623 14.084 169.623 15.236H165.303C165.303 14.852 165.207 14.5 165.015 14.18C164.823 13.86 164.543 13.612 164.175 13.436C163.823 13.244 163.391 13.148 162.879 13.148C162.399 13.148 161.991 13.228 161.655 13.388C161.335 13.532 161.087 13.74 160.911 14.012C160.751 14.284 160.671 14.588 160.671 14.924C160.671 15.372 160.823 15.756 161.127 16.076C161.431 16.396 161.959 16.588 162.711 16.652L163.839 16.748C165.151 16.86 166.311 17.148 167.319 17.612C168.327 18.06 169.119 18.676 169.695 19.46C170.271 20.244 170.559 21.204 170.559 22.34C170.559 23.476 170.263 24.468 169.671 25.316C169.095 26.164 168.263 26.82 167.175 27.284C166.103 27.748 164.807 27.98 163.287 27.98Z" fill="white"/>
<defs>
<clipPath id="clip0_3249_290">
<rect width="34" height="34" fill="white" transform="translate(2 2)"/>
</clipPath>
</defs>
</svg>
